<svg width="215" height="43" viewBox="0 0 215 43" fill="none" xmlns="http://www.w3.org/2000/svg">
<path d="M182.96 28.0378L189.89 38.7278L187.92 39.8379C185.73 41.1779 183.82 42.5179 181.23 41.8679C179.3 41.3779 177.72 40.0178 177.07 38.2378V34.0879L182.96 28.0378Z" fill="#1C1C1C"/>
<path d="M193.07 6.07784L177.07 22.5879V4.01779C178.22 0.437786 182.1 -1.16229 185.81 0.937708C187.72 2.00771 189.61 3.1278 191.61 4.2778L193.68 5.46774L193.08 6.08785L193.07 6.07784Z" fill="#1C1C1C"/>
<path d="M212.21 25.7778C207.24 28.8478 202.15 31.7177 197.04 34.6477L188.77 21.7478L200.53 9.40771L211.81 15.9277C215.54 18.1777 215.82 23.5378 212.21 25.7778Z" fill="#1C1C1C"/>
<path d="M0 39.2078V2.32788H5.6001V2.6377C5.6001 5.4677 5.40993 7.8679 4.42993 13.5979H4.80005C6.59005 5.8979 10.71 1.83789 17.73 1.83789H17.8501C24.3801 1.83789 28.1901 5.46778 29.1201 13.4778H29.4299C30.5999 5.83778 34.8501 1.83789 41.8701 1.83789H41.9299C49.1999 1.83789 53.1401 6.63787 53.1401 15.5679V39.2078H47.47V17.5378C47.47 11.1378 44.3901 7.55786 39.1001 7.55786H38.98C32.76 7.55786 29.3701 12.2378 29.3701 21.0378V39.1978H23.77V19.8679C23.77 11.6179 20.7501 7.55786 15.0901 7.55786H15.03C8.87003 7.55786 5.61011 12.5478 5.61011 20.9778V39.2078H0.0100098H0Z" fill="#1C1C1C"/>
<path d="M86.0801 26.8977H91.5L91.3801 27.8179C90.2101 35.0179 84.9799 39.6377 76.4199 39.6377H76.3C65.59 39.6377 59.74 32.6779 59.74 20.8579V20.3079C59.74 8.66786 65.6501 1.83789 75.8101 1.83789H75.9299C85.6599 1.83789 91.14 8.11769 91.45 19.8777L91.51 22.3977H65.28C65.71 30.0377 69.5901 34.5879 76.3601 34.5879H76.48C81.71 34.5879 85.1 31.8777 85.96 27.6277L86.0801 26.8877V26.8977ZM75.9199 6.94775C69.6999 6.94775 65.88 11.1378 65.27 18.2778H85.77V18.2178C85.46 10.9478 82.08 6.94775 75.98 6.94775H75.9199Z" fill="#1C1C1C"/>
<path d="M98.76 39.2078V2.32788H104.36V2.6377C104.36 5.3477 104.17 7.8679 103.19 13.5979H103.56C105.47 5.4679 109.96 1.83789 116.49 1.83789H116.61C124.49 1.83789 129.36 7.06769 129.36 15.8777V39.2178H123.76V17.5479C123.76 11.2079 120.06 7.56787 114.46 7.56787H114.4C107.81 7.56787 104.36 12.6177 104.36 21.4177V39.2178H98.76V39.2078Z" fill="#1C1C1C"/>
<path d="M137.18 2.32788H142.84V24.0679C142.84 30.6579 145.8 33.9778 151.28 33.9778H151.4C157.99 33.9778 161.62 29.1177 161.62 20.4277V2.32788H167.22V39.2078H161.62V38.4077C161.68 35.6977 162.11 32.8677 162.79 27.9377H162.42C160.57 35.6977 156.26 39.6978 149.43 39.6978H149.31C141.37 39.6978 137.18 34.7677 137.18 25.6577V2.31787V2.32788Z" fill="#1C1C1C"/>
</svg>
